<svg width="34" height="34" viewBox="0 0 34 34" fill="none" xmlns="http://www.w3.org/2000/svg">
<path d="M11 2H4.66667C3.95942 2 3.28115 2.28095 2.78105 2.78105C2.28095 3.28115 2 3.95942 2 4.66667V11C2 11.7072 2.28095 12.3855 2.78105 12.8856C3.28115 13.3857 3.95942 13.6667 4.66667 13.6667H11C11.7072 13.6667 12.3855 13.3857 12.8856 12.8856C13.3857 12.3855 13.6667 11.7072 13.6667 11V4.66667C13.6667 3.95942 13.3857 3.28115 12.8856 2.78105C12.3855 2.28095 11.7072 2 11 2Z" fill="black" fill-opacity="0.16"/>
<path d="M11 2H4.66667C3.95942 2 3.28115 2.28095 2.78105 2.78105C2.28095 3.28115 2 3.95942 2 4.66667V11C2 11.7072 2.28095 12.3855 2.78105 12.8856C3.28115 13.3857 3.95942 13.6667 4.66667 13.6667H11C11.7072 13.6667 12.3855 13.3857 12.8856 12.8856C13.3857 12.3855 13.6667 11.7072 13.6667 11V4.66667C13.6667 3.95942 13.3857 3.28115 12.8856 2.78105C12.3855 2.28095 11.7072 2 11 2Z" stroke="#160040" stroke-width="2.60193" stroke-miterlimit="10"/>
<path d="M11 2H4.66667C3.95942 2 3.28115 2.28095 2.78105 2.78105C2.28095 3.28115 2 3.95942 2 4.66667V11C2 11.7072 2.28095 12.3855 2.78105 12.8856C3.28115 13.3857 3.95942 13.6667 4.66667 13.6667H11C11.7072 13.6667 12.3855 13.3857 12.8856 12.8856C13.3857 12.3855 13.6667 11.7072 13.6667 11V4.66667C13.6667 3.95942 13.3857 3.28115 12.8856 2.78105C12.3855 2.28095 11.7072 2 11 2Z" stroke="#EAEAEA" stroke-width="2.60193" stroke-miterlimit="10"/>
<path d="M29.3333 2H23C22.2928 2 21.6145 2.28095 21.1144 2.78105C20.6143 3.28115 20.3333 3.95942 20.3333 4.66667V11C20.3333 11.7072 20.6143 12.3855 21.1144 12.8856C21.6145 13.3857 22.2928 13.6667 23 13.6667H29.3333C30.0406 13.6667 30.7189 13.3857 31.219 12.8856C31.719 12.3855 32 11.7072 32 11V4.66667C32 3.95942 31.719 3.28115 31.219 2.78105C30.7189 2.28095 30.0406 2 29.3333 2ZM11 20.3333H4.66667C3.95942 20.3333 3.28115 20.6143 2.78105 21.1144C2.28095 21.6145 2 22.2928 2 23V29.3333C2 30.0406 2.28095 30.7189 2.78105 31.219C3.28115 31.719 3.95942 32 4.66667 32H11C11.7072 32 12.3855 31.719 12.8856 31.219C13.3857 30.7189 13.6667 30.0406 13.6667 29.3333V23C13.6667 22.2928 13.3857 21.6145 12.8856 21.1144C12.3855 20.6143 11.7072 20.3333 11 20.3333Z" stroke="#160040" stroke-width="2.60193" stroke-miterlimit="10"/>
<path d="M29.3333 2H23C22.2928 2 21.6145 2.28095 21.1144 2.78105C20.6143 3.28115 20.3333 3.95942 20.3333 4.66667V11C20.3333 11.7072 20.6143 12.3855 21.1144 12.8856C21.6145 13.3857 22.2928 13.6667 23 13.6667H29.3333C30.0406 13.6667 30.7189 13.3857 31.219 12.8856C31.719 12.3855 32 11.7072 32 11V4.66667C32 3.95942 31.719 3.28115 31.219 2.78105C30.7189 2.28095 30.0406 2 29.3333 2ZM11 20.3333H4.66667C3.95942 20.3333 3.28115 20.6143 2.78105 21.1144C2.28095 21.6145 2 22.2928 2 23V29.3333C2 30.0406 2.28095 30.7189 2.78105 31.219C3.28115 31.719 3.95942 32 4.66667 32H11C11.7072 32 12.3855 31.719 12.8856 31.219C13.3857 30.7189 13.6667 30.0406 13.6667 29.3333V23C13.6667 22.2928 13.3857 21.6145 12.8856 21.1144C12.3855 20.6143 11.7072 20.3333 11 20.3333Z" stroke="#EAEAEA" stroke-width="2.60193" stroke-miterlimit="10"/>
<path d="M29.332 20.332H22.9987C22.2915 20.332 21.6132 20.613 21.1131 21.1131C20.613 21.6132 20.332 22.2915 20.332 22.9987V29.332C20.332 30.0393 20.613 30.7176 21.1131 31.2176C21.6132 31.7177 22.2915 31.9987 22.9987 31.9987H29.332C30.0393 31.9987 30.7176 31.7177 31.2176 31.2176C31.7177 30.7176 31.9987 30.0393 31.9987 29.332V22.9987C31.9987 22.2915 31.7177 21.6132 31.2176 21.1131C30.7176 20.613 30.0393 20.332 29.332 20.332Z" fill="black" fill-opacity="0.16"/>
<path d="M29.332 20.332H22.9987C22.2915 20.332 21.6132 20.613 21.1131 21.1131C20.613 21.6132 20.332 22.2915 20.332 22.9987V29.332C20.332 30.0393 20.613 30.7176 21.1131 31.2176C21.6132 31.7177 22.2915 31.9987 22.9987 31.9987H29.332C30.0393 31.9987 30.7176 31.7177 31.2176 31.2176C31.7177 30.7176 31.9987 30.0393 31.9987 29.332V22.9987C31.9987 22.2915 31.7177 21.6132 31.2176 21.1131C30.7176 20.613 30.0393 20.332 29.332 20.332Z" stroke="#160040" stroke-width="2.60193" stroke-miterlimit="10"/>
<path d="M29.332 20.332H22.9987C22.2915 20.332 21.6132 20.613 21.1131 21.1131C20.613 21.6132 20.332 22.2915 20.332 22.9987V29.332C20.332 30.0393 20.613 30.7176 21.1131 31.2176C21.6132 31.7177 22.2915 31.9987 22.9987 31.9987H29.332C30.0393 31.9987 30.7176 31.7177 31.2176 31.2176C31.7177 30.7176 31.9987 30.0393 31.9987 29.332V22.9987C31.9987 22.2915 31.7177 21.6132 31.2176 21.1131C30.7176 20.613 30.0393 20.332 29.332 20.332Z" stroke="#EAEAEA" stroke-width="2.60193" stroke-miterlimit="10"/>
</svg>
