<svg width="34" height="34" viewBox="0 0 34 34" fill="none" xmlns="http://www.w3.org/2000/svg">
<path d="M28 2H6C4.93913 2 3.92172 2.42143 3.17157 3.17157C2.42143 3.92172 2 4.93913 2 6V28C2 29.0609 2.42143 30.0783 3.17157 30.8284C3.92172 31.5786 4.93913 32 6 32H28C29.0609 32 30.0783 31.5786 30.8284 30.8284C31.5786 30.0783 32 29.0609 32 28V6C32 4.93913 31.5786 3.92172 30.8284 3.17157C30.0783 2.42143 29.0609 2 28 2Z" fill="black" fill-opacity="0.16"/>
<path d="M28 2H6C4.93913 2 3.92172 2.42143 3.17157 3.17157C2.42143 3.92172 2 4.93913 2 6V28C2 29.0609 2.42143 30.0783 3.17157 30.8284C3.92172 31.5786 4.93913 32 6 32H28C29.0609 32 30.0783 31.5786 30.8284 30.8284C31.5786 30.0783 32 29.0609 32 28V6C32 4.93913 31.5786 3.92172 30.8284 3.17157C30.0783 2.42143 29.0609 2 28 2Z" stroke="#160040" stroke-width="2.5" stroke-miterlimit="10"/>
<path d="M28 2H6C4.93913 2 3.92172 2.42143 3.17157 3.17157C2.42143 3.92172 2 4.93913 2 6V28C2 29.0609 2.42143 30.0783 3.17157 30.8284C3.92172 31.5786 4.93913 32 6 32H28C29.0609 32 30.0783 31.5786 30.8284 30.8284C31.5786 30.0783 32 29.0609 32 28V6C32 4.93913 31.5786 3.92172 30.8284 3.17157C30.0783 2.42143 29.0609 2 28 2Z" stroke="#EAEAEA" stroke-width="2.5" stroke-miterlimit="10"/>
<path d="M17 21.999H25.3333" stroke="#160040" stroke-width="2.5" stroke-miterlimit="10" stroke-linecap="round"/>
<path d="M17 21.999H25.3333" stroke="#EAEAEA" stroke-width="2.5" stroke-miterlimit="10" stroke-linecap="round"/>
<path d="M10.3327 23.6673C10.7747 23.6673 11.1986 23.4917 11.5112 23.1792C11.8238 22.8666 11.9993 22.4427 11.9993 22.0007C11.9993 21.5586 11.8238 21.1347 11.5112 20.8221C11.1986 20.5096 10.7747 20.334 10.3327 20.334C9.89065 20.334 9.46673 20.5096 9.15417 20.8221C8.84161 21.1347 8.66602 21.5586 8.66602 22.0007C8.66602 22.4427 8.84161 22.8666 9.15417 23.1792C9.46673 23.4917 9.89065 23.6673 10.3327 23.6673Z" fill="black"/>
<path d="M10.3327 23.6673C10.7747 23.6673 11.1986 23.4917 11.5112 23.1792C11.8238 22.8666 11.9993 22.4427 11.9993 22.0007C11.9993 21.5586 11.8238 21.1347 11.5112 20.8221C11.1986 20.5096 10.7747 20.334 10.3327 20.334C9.89065 20.334 9.46673 20.5096 9.15417 20.8221C8.84161 21.1347 8.66602 21.5586 8.66602 22.0007C8.66602 22.4427 8.84161 22.8666 9.15417 23.1792C9.46673 23.4917 9.89065 23.6673 10.3327 23.6673Z" stroke="#160040" stroke-width="2.5" stroke-miterlimit="10"/>
<path d="M10.3327 23.6673C10.7747 23.6673 11.1986 23.4917 11.5112 23.1792C11.8238 22.8666 11.9993 22.4427 11.9993 22.0007C11.9993 21.5586 11.8238 21.1347 11.5112 20.8221C11.1986 20.5096 10.7747 20.334 10.3327 20.334C9.89065 20.334 9.46673 20.5096 9.15417 20.8221C8.84161 21.1347 8.66602 21.5586 8.66602 22.0007C8.66602 22.4427 8.84161 22.8666 9.15417 23.1792C9.46673 23.4917 9.89065 23.6673 10.3327 23.6673Z" stroke="#EAEAEA" stroke-width="2.5" stroke-miterlimit="10"/>
<path d="M17 12.001H25.3333" stroke="#160040" stroke-width="2.5" stroke-miterlimit="10" stroke-linecap="round"/>
<path d="M17 12.001H25.3333" stroke="#EAEAEA" stroke-width="2.5" stroke-miterlimit="10" stroke-linecap="round"/>
<path d="M10.3327 13.6654C10.7747 13.6654 11.1986 13.4898 11.5112 13.1772C11.8238 12.8646 11.9993 12.4407 11.9993 11.9987C11.9993 11.5567 11.8238 11.1327 11.5112 10.8202C11.1986 10.5076 10.7747 10.332 10.3327 10.332C9.89065 10.332 9.46673 10.5076 9.15417 10.8202C8.84161 11.1327 8.66602 11.5567 8.66602 11.9987C8.66602 12.4407 8.84161 12.8646 9.15417 13.1772C9.46673 13.4898 9.89065 13.6654 10.3327 13.6654Z" fill="black"/>
<path d="M10.3327 13.6654C10.7747 13.6654 11.1986 13.4898 11.5112 13.1772C11.8238 12.8646 11.9993 12.4407 11.9993 11.9987C11.9993 11.5567 11.8238 11.1327 11.5112 10.8202C11.1986 10.5076 10.7747 10.332 10.3327 10.332C9.89065 10.332 9.46673 10.5076 9.15417 10.8202C8.84161 11.1327 8.66602 11.5567 8.66602 11.9987C8.66602 12.4407 8.84161 12.8646 9.15417 13.1772C9.46673 13.4898 9.89065 13.6654 10.3327 13.6654Z" stroke="#160040" stroke-width="2.5" stroke-miterlimit="10"/>
<path d="M10.3327 13.6654C10.7747 13.6654 11.1986 13.4898 11.5112 13.1772C11.8238 12.8646 11.9993 12.4407 11.9993 11.9987C11.9993 11.5567 11.8238 11.1327 11.5112 10.8202C11.1986 10.5076 10.7747 10.332 10.3327 10.332C9.89065 10.332 9.46673 10.5076 9.15417 10.8202C8.84161 11.1327 8.66602 11.5567 8.66602 11.9987C8.66602 12.4407 8.84161 12.8646 9.15417 13.1772C9.46673 13.4898 9.89065 13.6654 10.3327 13.6654Z" stroke="#EAEAEA" stroke-width="2.5" stroke-miterlimit="10"/>
</svg>
