<svg width="34" height="37" viewBox="0 0 34 37" fill="none" xmlns="http://www.w3.org/2000/svg">
<path d="M28 35.3337H6.00004C5.47306 35.3337 4.95128 35.2295 4.46467 35.0273C3.97807 34.825 3.53622 34.5286 3.16452 34.155C2.79283 33.7815 2.49861 33.3382 2.29877 32.8505C2.09893 32.3629 1.99742 31.8406 2.00005 31.3137V12.5537C2.00005 11.9171 2.30005 11.3304 2.80005 10.9454L15.7667 2.40209C16.1123 2.14116 16.5336 2 16.9667 2C17.3997 2 17.821 2.14116 18.1667 2.40209L31.2 10.9454C31.7 11.3304 32 11.9171 32 12.5537V31.3137C32.0026 31.8406 31.9011 32.3629 31.7012 32.8505C31.5014 33.3382 31.2072 33.7815 30.8355 34.155C30.4638 34.5286 30.0219 34.825 29.5353 35.0273C29.0487 35.2295 28.5269 35.3337 28 35.3337Z" fill="black" fill-opacity="0.16"/>
<path d="M28 35.3337H6.00004C5.47306 35.3337 4.95128 35.2295 4.46467 35.0273C3.97807 34.825 3.53622 34.5286 3.16452 34.155C2.79283 33.7815 2.49861 33.3382 2.29877 32.8505C2.09893 32.3629 1.99742 31.8406 2.00005 31.3137V12.5537C2.00005 11.9171 2.30005 11.3304 2.80005 10.9454L15.7667 2.40209C16.1123 2.14116 16.5336 2 16.9667 2C17.3997 2 17.821 2.14116 18.1667 2.40209L31.2 10.9454C31.7 11.3304 32 11.9171 32 12.5537V31.3137C32.0026 31.8406 31.9011 32.3629 31.7012 32.8505C31.5014 33.3382 31.2072 33.7815 30.8355 34.155C30.4638 34.5286 30.0219 34.825 29.5353 35.0273C29.0487 35.2295 28.5269 35.3337 28 35.3337Z" stroke="#160040" stroke-width="2.5" stroke-miterlimit="10"/>
<path d="M28 35.3337H6.00004C5.47306 35.3337 4.95128 35.2295 4.46467 35.0273C3.97807 34.825 3.53622 34.5286 3.16452 34.155C2.79283 33.7815 2.49861 33.3382 2.29877 32.8505C2.09893 32.3629 1.99742 31.8406 2.00005 31.3137V12.5537C2.00005 11.9171 2.30005 11.3304 2.80005 10.9454L15.7667 2.40209C16.1123 2.14116 16.5336 2 16.9667 2C17.3997 2 17.821 2.14116 18.1667 2.40209L31.2 10.9454C31.7 11.3304 32 11.9171 32 12.5537V31.3137C32.0026 31.8406 31.9011 32.3629 31.7012 32.8505C31.5014 33.3382 31.2072 33.7815 30.8355 34.155C30.4638 34.5286 30.0219 34.825 29.5353 35.0273C29.0487 35.2295 28.5269 35.3337 28 35.3337Z" stroke="#EAEAEA" stroke-width="2.5" stroke-miterlimit="10"/>
<path d="M13.3333 18.667H20.6666C21.4 18.667 22 19.267 22 20.0003V35.3336H12V20.0003C12 19.267 12.6 18.667 13.3333 18.667Z" fill="#BFBCC3"/>
<path d="M13.3333 18.667H20.6666C21.4 18.667 22 19.267 22 20.0003V35.3336H12V20.0003C12 19.267 12.6 18.667 13.3333 18.667Z" stroke="#160040" stroke-width="2.5" stroke-miterlimit="10"/>
<path d="M13.3333 18.667H20.6666C21.4 18.667 22 19.267 22 20.0003V35.3336H12V20.0003C12 19.267 12.6 18.667 13.3333 18.667Z" stroke="#EAEAEA" stroke-width="2.5" stroke-miterlimit="10"/>
</svg>
