<svg width="203" height="61" viewBox="0 0 203 61" fill="none" xmlns="http://www.w3.org/2000/svg">
<g clip-path="url(#clip0_79_386)">
<path d="M31.8195 58.8264C26.8691 58.8264 22.2775 57.9665 18.1719 56.269C14.0536 54.5669 10.5705 52.2565 7.81932 49.4027C3.53946 44.9629 3.59886 38.2448 7.87627 33.8737C6.62933 31.3707 5.98033 28.5969 5.98033 25.7088C5.98033 21.4109 7.39615 17.3348 10.0732 13.9211C12.5017 10.8257 15.7541 8.42153 19.7404 6.77436C23.3104 5.29918 27.2834 4.55176 31.55 4.55176C36.3915 4.55176 40.8741 5.4419 44.8722 7.19793C48.7446 8.8977 52.0613 11.1912 54.7324 14.0149C58.5827 18.0859 58.8316 24.0163 55.5802 28.322C57.2361 31.1576 58.1035 34.3952 58.1035 37.7933C58.1035 42.3181 56.5689 46.5319 53.6671 49.9795C51.1025 53.0259 47.7034 55.3445 43.5644 56.87C40.0405 58.1682 36.0881 58.8264 31.8195 58.8264Z" fill="#464646"/>
<path d="M31.8201 59.4046C26.7798 59.4046 22.1032 58.5272 17.9201 56.7982C13.7227 55.0632 10.1684 52.7052 7.35739 49.7901C2.95283 45.22 2.88704 38.4013 7.14531 33.7713C5.96022 31.2641 5.35982 28.5548 5.35982 25.7097C5.35982 21.2878 6.81688 17.0947 9.57292 13.5803C12.0673 10.3994 15.4031 7.93208 19.49 6.24557C23.1366 4.73792 27.1956 3.97266 31.5505 3.97266C36.4868 3.97266 41.0578 4.88155 45.1373 6.67418C49.0858 8.40688 52.4707 10.748 55.1988 13.6311C59.1193 17.7757 59.5538 23.7826 56.3053 28.3581C57.8895 31.1964 58.7256 34.4505 58.7256 37.7929C58.7256 42.4476 57.1463 46.7844 54.157 50.3358C51.5223 53.4655 48.0357 55.8449 43.7937 57.407C40.1977 58.7335 36.1691 59.4046 31.8201 59.4046ZM31.5505 5.13039C27.3703 5.13039 23.4808 5.8618 19.9932 7.30404C16.1076 8.90776 12.9402 11.2488 10.5749 14.2632C7.97644 17.5772 6.60186 21.5357 6.60186 25.7101C6.60186 28.5169 7.22042 31.1818 8.43987 33.6304C8.49155 33.7339 8.5092 33.8493 8.49059 33.9621C8.47199 34.0749 8.41795 34.1801 8.3353 34.2644C6.35724 36.276 5.25555 38.9028 5.24566 41.6311C5.23576 44.3593 6.31836 46.993 8.28179 49.017C10.975 51.81 14.3874 54.072 18.4247 55.7402C22.4474 57.4038 26.954 58.2473 31.8201 58.2473C36.0125 58.2473 39.8874 57.6028 43.3371 56.3316C47.3705 54.8455 50.6823 52.5881 53.1791 49.6222C55.9946 46.2776 57.483 42.1869 57.483 37.7933C57.483 34.52 56.6362 31.3405 55.0348 28.5983C54.9219 28.4048 54.9366 28.1688 55.0726 27.9881C58.2229 23.8183 57.892 18.2291 54.267 14.3982C51.6514 11.6335 48.4015 9.38759 44.6081 7.72121C40.695 6.00177 36.3012 5.13039 31.5505 5.13039Z" fill="#464646"/>
<path d="M28.093 55.3537C23.1425 55.3537 18.5509 54.4937 14.4453 52.7963C10.327 51.0942 6.84389 48.7838 4.09276 45.9299C-0.187103 41.4902 -0.1277 34.7721 4.14971 30.401C2.90277 27.898 2.25377 25.1242 2.25377 22.2361C2.25377 17.9382 3.66959 13.8621 6.34659 10.4484C8.77518 7.35209 12.0275 4.94789 16.0138 3.30073C19.5838 1.82555 23.5569 1.07812 27.8235 1.07812C32.665 1.07812 37.1476 1.96826 41.1456 3.7243C45.018 5.42407 48.3347 7.71757 51.0058 10.5412C54.8561 14.6123 55.105 20.5427 51.8536 24.8484C53.5095 27.6839 54.377 30.9215 54.377 34.3197C54.377 38.8445 52.8424 43.0583 49.9405 46.5058C47.3759 49.5522 43.9768 51.8709 39.8378 53.3964C36.314 54.6955 32.3616 55.3537 28.093 55.3537Z" fill="#D8D9CF"/>
<path d="M28.0935 55.9319C23.0532 55.9319 18.3767 55.0546 14.1935 53.3256C9.99613 51.5906 6.44185 49.2326 3.63082 46.3174C-0.773735 41.7473 -0.839518 34.9281 3.41875 30.2986C2.23366 27.7915 1.63326 25.0822 1.63326 22.237C1.63326 17.8152 3.09032 13.6215 5.84636 10.1076C8.34074 6.92674 11.6766 4.45942 15.7635 2.77292C19.4101 1.26526 23.469 0.5 27.824 0.5C32.7602 0.5 37.3312 1.40889 41.4108 3.20152C45.3593 4.93423 48.7442 7.2753 51.4722 10.1584C55.3927 14.3031 55.8272 20.3099 52.5788 24.8855C54.163 27.7238 54.999 30.9779 54.999 34.3202C54.999 38.9749 53.4197 43.3117 50.4305 46.8631C47.7957 49.9928 44.3092 52.3723 40.0671 53.9344C36.4711 55.2609 32.4421 55.9319 28.0935 55.9319ZM27.824 1.65773C23.6438 1.65773 19.7542 2.38914 16.2667 3.83139C12.381 5.4351 9.2136 7.77617 6.84833 10.7906C4.24988 14.1046 2.87529 18.0631 2.87529 22.2375C2.87529 25.0442 3.49385 27.7091 4.71331 30.1577C4.76499 30.2612 4.78264 30.3766 4.76403 30.4895C4.74542 30.6023 4.69139 30.7074 4.60874 30.7917C2.63067 32.8033 1.52899 35.4301 1.51909 38.1584C1.5092 40.8867 2.5918 43.5203 4.55523 45.5444C7.24843 48.3374 10.6608 50.5993 14.6982 52.2675C18.7208 53.9312 23.2275 54.7747 28.0935 54.7747C32.286 54.7747 36.1608 54.1302 39.6105 52.859C43.644 51.3728 46.9557 49.1155 49.4526 46.1496C52.268 42.8049 53.7565 38.7142 53.7565 34.3207C53.7565 31.0474 52.9096 27.8679 51.3083 25.1256C51.1953 24.9321 51.2101 24.6961 51.3461 24.5154C54.4963 20.3456 54.1654 14.7564 50.5405 10.9255C47.9248 8.16086 44.6749 5.91493 40.8815 4.24855C36.9684 2.52911 32.5746 1.65773 27.824 1.65773Z" fill="#464646"/>
<path d="M36.345 26.6124C34.4815 25.779 32.1633 25.1683 29.3916 24.7791C27.6022 24.5014 26.2011 24.2311 25.1868 23.9662C24.174 23.7023 23.4656 23.3899 23.0626 23.0285C22.661 22.6681 22.4597 22.2367 22.4597 21.7372C22.4597 20.8484 22.9654 20.1257 23.9796 19.5704C24.9924 19.0147 26.3051 18.737 27.9149 18.737C29.5536 18.737 31.1721 19.1121 32.7672 19.8623C34.3612 20.6124 35.6665 21.6402 36.6793 22.9457L41.6882 18.1954C40.1379 16.5565 38.1933 15.2231 35.8521 14.1953C33.5119 13.1679 30.8359 12.6533 27.825 12.6533C25.2909 12.6533 23.0331 13.0636 21.0513 13.8824C19.068 14.7021 17.5103 15.8347 16.3772 17.2783C15.2442 18.7228 14.6776 20.3759 14.6776 22.2363C14.6776 23.8757 15.1254 25.2987 16.0193 26.5072C16.9148 27.7161 18.2854 28.7156 20.1342 29.5074C21.9816 30.2992 24.3375 30.8897 27.1996 31.2781C29.883 31.6399 31.7171 32.1051 32.7009 32.6741C33.6847 33.2436 34.1761 33.9453 34.1761 34.7782C34.1761 35.3619 33.9527 35.8692 33.505 36.2992C33.0573 36.7305 32.394 37.064 31.5153 37.2995C30.6346 37.5356 29.5536 37.654 28.2728 37.654C27.0499 37.654 25.8137 37.4875 24.5609 37.1541C23.3222 36.8267 22.1403 36.3355 21.0513 35.6954C19.9619 35.0568 19.0753 34.3066 18.3895 33.4453L13.3359 38.1956C14.9167 39.835 16.9653 41.1753 19.4852 42.2168C22.0047 43.2583 24.8736 43.7793 28.0945 43.7793C30.8069 43.7793 33.1992 43.3969 35.2713 42.6331C37.3435 41.8692 38.9763 40.7787 40.1688 39.362C41.3612 37.9459 41.9567 36.2649 41.9567 34.3204C41.9567 32.5707 41.4874 31.0567 40.5483 29.7787C39.6091 28.5015 38.208 27.4454 36.345 26.6124Z" fill="#58287F"/>
<path d="M28.0946 44.358C24.801 44.358 21.8191 43.8155 19.2329 42.7461C16.6443 41.6757 14.5044 40.2742 12.874 38.5822C12.7681 38.4725 12.7112 38.3291 12.715 38.1816C12.7189 38.034 12.7831 37.8934 12.8946 37.7886L17.9482 33.0392C18.0753 32.9193 18.2368 32.8548 18.4347 32.8686C18.6153 32.8809 18.7803 32.966 18.8883 33.1014C19.5265 33.9028 20.3645 34.6104 21.3812 35.2051C22.4211 35.816 23.5494 36.2853 24.7317 36.5988C27.1775 37.2497 29.7406 37.1752 31.343 36.7447C32.1108 36.5389 32.6881 36.2544 33.0583 35.8981C33.3921 35.577 33.5546 35.211 33.5546 34.7801C33.5546 34.1548 33.1678 33.6274 32.373 33.1673C31.4682 32.644 29.6979 32.2007 27.1108 31.8526C24.204 31.4583 21.7695 30.8468 19.8746 30.0339C17.9325 29.2033 16.4631 28.127 15.5088 26.8375C14.5456 25.5352 14.0566 23.9878 14.0566 22.2381C14.0566 20.2603 14.6693 18.4763 15.8765 16.938C17.0689 15.4176 18.7263 14.2118 20.7995 13.3537C22.8545 12.5047 25.2187 12.0752 27.8255 12.0752C30.9139 12.0752 33.7043 12.6122 36.1172 13.6725C38.5227 14.7282 40.5547 16.1206 42.1551 17.8131C42.3711 18.0413 42.3603 18.3848 42.132 18.6021L37.1231 23.3515C36.996 23.4723 36.7942 23.5336 36.6342 23.5235C36.544 23.5168 36.4564 23.492 36.3775 23.4509C36.2985 23.4098 36.23 23.3532 36.1766 23.2852C35.2267 22.062 33.9856 21.0845 32.4873 20.3792C30.9866 19.6738 29.4485 19.3166 27.9154 19.3166C26.4259 19.3166 25.2065 19.57 24.2953 20.0695C23.4779 20.5182 23.0808 21.0644 23.0808 21.7391C23.0808 22.0826 23.2119 22.3607 23.4931 22.6128C23.7165 22.814 24.2212 23.1146 25.3542 23.411C26.3395 23.6676 27.7318 23.9365 29.4932 24.2092C32.3077 24.6048 34.7058 25.2388 36.6131 26.091L36.614 26.0919C38.5669 26.9656 40.0642 28.0972 41.0598 29.4535C42.0667 30.8221 42.5773 32.4601 42.5773 34.3218C42.5773 36.3916 41.9307 38.208 40.6568 39.7203C39.4 41.2133 37.6651 42.3742 35.4987 43.1724C33.3641 43.9587 30.8722 44.358 28.0946 44.358ZM14.1985 38.2067C15.658 39.6004 17.5176 40.77 19.7376 41.6881C22.1637 42.6917 24.9757 43.2003 28.0946 43.2003C30.7161 43.2003 33.0539 42.8284 35.0431 42.0947C37.0009 41.3734 38.561 40.3337 39.6794 39.0044C40.7785 37.6998 41.3352 36.1245 41.3352 34.3204C41.3352 32.6975 40.8983 31.2786 40.0358 30.1053C39.1634 28.9197 37.8305 27.9193 36.075 27.1325C34.2797 26.3302 31.9989 25.7296 29.2988 25.35C27.4839 25.0696 26.0464 24.7915 25.0189 24.5239C23.8933 24.2302 23.1117 23.8775 22.6316 23.4457C22.1053 22.9732 21.8382 22.3978 21.8382 21.7377C21.8382 20.6321 22.4519 19.7361 23.664 19.0714C24.7705 18.4658 26.2006 18.158 27.9149 18.158C29.6434 18.158 31.371 18.5568 33.0475 19.345C34.4982 20.0288 35.7368 20.9423 36.7353 22.0666L40.832 18.1804C39.4079 16.7857 37.6465 15.6225 35.588 14.7182C33.3416 13.7315 30.7293 13.232 27.8255 13.232C25.392 13.232 23.1986 13.6286 21.3027 14.4108C19.4308 15.1852 17.9423 16.2656 16.8785 17.6196C15.8303 18.9566 15.2992 20.51 15.2992 22.2368C15.2992 23.7481 15.714 25.0737 16.5319 26.1784C17.3581 27.2949 18.6571 28.2377 20.3944 28.9814C22.1814 29.7476 24.501 30.3276 27.2899 30.705C30.0862 31.0823 31.964 31.5649 33.0293 32.1824C34.2036 32.8617 34.7981 33.7354 34.7981 34.7788C34.7981 35.5147 34.5129 36.1625 33.9527 36.7013C33.4284 37.2054 32.667 37.5933 31.6881 37.8554C29.8648 38.3457 27.0612 38.4207 24.3915 37.7094C23.0966 37.3662 21.8609 36.8524 20.7219 36.1835C19.7975 35.6433 19.0007 35.0148 18.3429 34.3117L14.1985 38.2067Z" fill="#464646"/>
<path d="M17.0077 48.1068C16.9277 48.1068 16.8452 48.0908 16.7652 48.057L17.0225 47.5291L16.752 48.0515L17.2301 46.9834C17.5394 47.1193 17.7009 47.4728 17.5576 47.761C17.4505 47.9755 17.237 48.1068 17.0077 48.1068Z" fill="#464646"/>
<path d="M21.8112 49.5446C21.7675 49.5446 21.7238 49.54 21.6801 49.5322C21.0087 49.3973 20.343 49.2386 19.6845 49.0565C19.3556 48.965 19.169 48.643 19.2657 48.3365C19.3639 48.0314 19.7061 47.8594 20.0385 47.9463C20.6585 48.1192 21.2928 48.2707 21.9393 48.3996C22.0258 48.4004 22.1111 48.4179 22.1899 48.4511C22.2686 48.4844 22.3391 48.5326 22.3967 48.5926C22.4543 48.6527 22.4977 48.7234 22.5243 48.8C22.5509 48.8767 22.56 48.9576 22.551 49.0378C22.5421 49.1179 22.5152 49.1954 22.4723 49.2653C22.4293 49.3352 22.3711 49.3959 22.3014 49.4436C22.2318 49.4914 22.1522 49.525 22.0677 49.5424C21.9833 49.5597 21.8959 49.5605 21.8112 49.5446Z" fill="#464646"/>
<path d="M28.0932 50.145C26.9543 50.145 25.833 50.092 24.7618 49.9868C24.6807 49.9791 24.6019 49.9565 24.5301 49.9203C24.4583 49.8842 24.3949 49.8352 24.3435 49.7762C24.2921 49.7171 24.2537 49.6492 24.2306 49.5763C24.2074 49.5034 24.1999 49.427 24.2086 49.3514C24.226 49.1989 24.3075 49.0591 24.4353 48.9625C24.5631 48.8659 24.7267 48.8204 24.8904 48.8359C25.9189 48.9365 26.9965 48.9873 28.0932 48.9873C31.4973 48.9873 34.6038 48.4786 37.326 47.4774C40.3211 46.3731 42.7571 44.7251 44.5647 42.5775C45.1735 41.8558 45.6993 41.0765 46.1332 40.2524C46.2061 40.1153 46.334 40.0105 46.4893 39.9605C46.6446 39.9106 46.8147 39.9197 46.9628 39.9857C47.2721 40.1257 47.3997 40.472 47.249 40.7588C46.7776 41.6569 46.2054 42.5061 45.5421 43.292C43.5961 45.6024 40.9858 47.3735 37.7821 48.5537C34.9141 49.6094 31.6549 50.145 28.0932 50.145Z" fill="#464646"/>
<path d="M47.7281 38.4092C47.6341 38.4093 47.5412 38.3895 47.4566 38.3512C47.372 38.3129 47.2979 38.2572 47.2398 38.1883C47.1817 38.1194 47.1412 38.039 47.1214 37.9534C47.1015 37.8677 47.1029 37.7789 47.1253 37.6938C47.4041 36.6267 47.546 35.4918 47.546 34.3208C47.546 34.1674 47.6114 34.0202 47.7279 33.9117C47.8444 33.8032 48.0023 33.7422 48.167 33.7422C48.3317 33.7422 48.4897 33.8032 48.6062 33.9117C48.7226 34.0202 48.788 34.1674 48.788 34.3208C48.788 35.5833 48.6339 36.811 48.3305 37.9674C48.2618 38.2318 48.0085 38.4092 47.7281 38.4092Z" fill="#464646"/>
<path d="M43.8047 25.0239C43.6823 25.024 43.5626 24.9903 43.4607 24.9271C43.3588 24.864 43.2792 24.7742 43.2319 24.669C43.1846 24.5638 43.1717 24.448 43.1948 24.336C43.2179 24.224 43.276 24.1209 43.3618 24.0396L43.7295 23.6915C43.845 23.5821 44.0024 23.5199 44.1671 23.5186C44.3319 23.5173 44.4904 23.577 44.6078 23.6846C44.7252 23.7922 44.792 23.9389 44.7934 24.0924C44.7948 24.2458 44.7307 24.3935 44.6152 24.5029L44.2475 24.851C44.1897 24.9059 44.1208 24.9495 44.0448 24.9792C43.9688 25.0089 43.8871 25.0241 43.8047 25.0239Z" fill="#464646"/>
<path d="M46.1172 22.8306C45.9948 22.8306 45.8751 22.7969 45.7732 22.7338C45.6713 22.6706 45.5917 22.5808 45.5444 22.4756C45.4971 22.3705 45.4842 22.2546 45.5073 22.1426C45.5304 22.0306 45.5885 21.9275 45.6743 21.8462C47.7195 19.9077 47.8094 16.7913 45.8805 14.7526C45.7789 14.6365 45.7295 14.4883 45.7425 14.339C45.7556 14.1897 45.8303 14.0509 45.9508 13.9518C46.0713 13.8526 46.2283 13.8008 46.3889 13.8072C46.5495 13.8135 46.7013 13.8776 46.8123 13.9859C49.1707 16.4793 49.0588 20.2873 46.56 22.6577C46.5022 22.7125 46.4333 22.7561 46.3573 22.7858C46.2812 22.8155 46.1996 22.8307 46.1172 22.8306Z" fill="#464646"/>
</g>
<g clip-path="url(#clip1_79_386)">
<path d="M91.0006 40.8352C90.7657 42.2443 90.1589 43.5248 89.1803 44.6765C88.2016 45.8282 86.9163 46.736 85.3243 47.3999C83.7323 48.0639 81.9185 48.3958 79.8829 48.3958C76.464 48.3958 73.802 47.5693 71.8969 45.9163C69.9917 44.2632 69.0261 41.9191 69 38.884H78.2387C78.0821 40.5371 78.6562 41.3636 79.9611 41.3636C80.457 41.3636 80.8746 41.2146 81.2138 40.9165C81.5531 40.6184 81.7228 40.1848 81.7228 39.6157C81.7228 38.9653 81.4161 38.4234 80.8028 37.9898C80.1895 37.5562 79.2174 37.0413 77.8864 36.4451C76.4249 35.8218 75.2048 35.2053 74.2261 34.5956C73.2474 33.9859 72.4058 33.1458 71.7011 32.0754C70.9965 31.005 70.6442 29.6703 70.6442 28.0715C70.6442 27.5024 70.7094 26.8114 70.8399 25.9984C71.2314 23.7221 72.4515 21.9606 74.5001 20.7141C76.5488 19.4675 78.9694 18.8442 81.7619 18.8442C85.3373 18.8442 87.9993 19.6572 89.7479 21.2831C91.4964 22.9091 92.4099 25.199 92.4882 28.1528H83.132C83.2625 26.6352 82.7928 25.8765 81.7228 25.8765C81.3052 25.8765 80.9463 26.0187 80.6462 26.3033C80.3461 26.5878 80.196 27.0011 80.196 27.543C80.196 28.1392 80.4896 28.6338 81.0768 29.0267C81.664 29.4197 82.597 29.8871 83.8758 30.4291C85.3634 31.0524 86.5966 31.6553 87.5752 32.238C88.5539 32.8206 89.4021 33.6471 90.1198 34.7175C90.8375 35.788 91.1963 37.1361 91.1963 38.7621C91.1963 39.3312 91.1311 40.0222 91.0006 40.8352ZM121.653 25.1854H129.678L120.517 48.1113H110.731L110.261 35.185L105.25 48.1113H95.4633L94.1715 25.1854H102.784L102.275 39.1279L107.481 25.1854H116.759L117.386 39.2905L121.653 25.1854ZM139.23 24.9009C140.769 24.9009 142.048 25.2057 143.066 25.8155C144.084 26.4252 144.775 27.2585 145.141 28.3154L145.689 25.1854H154.34L150.426 48.1113H141.774L142.322 44.9813C141.591 46.0382 140.652 46.8715 139.504 47.4812C138.355 48.091 137.063 48.3958 135.628 48.3958C133.305 48.3958 131.485 47.6032 130.167 46.0179C128.849 44.4326 128.19 42.2172 128.19 39.3718C128.19 38.3692 128.295 37.1903 128.503 35.8354C128.895 33.5862 129.619 31.635 130.676 29.982C131.733 28.3289 133.012 27.0688 134.512 26.2016C136.013 25.3345 137.585 24.9009 139.23 24.9009ZM141.187 32.7867C140.247 32.7867 139.419 33.1255 138.701 33.803C137.983 34.4804 137.52 35.4289 137.311 36.6484C137.259 36.8923 137.233 37.2174 137.233 37.6239C137.233 38.5453 137.468 39.2567 137.938 39.758C138.408 40.2593 139.047 40.51 139.856 40.51C140.796 40.51 141.624 40.1712 142.342 39.4938C143.06 38.8163 143.523 37.8678 143.732 36.6484C143.784 36.4045 143.81 36.0793 143.81 35.6728C143.81 34.7514 143.575 34.0401 143.105 33.5387C142.635 33.0374 141.996 32.7867 141.187 32.7867ZM166.006 24.9009C169.294 24.9009 171.806 25.6529 173.542 27.1569C175.277 28.6609 176.276 30.6459 176.537 33.1119H168.042C167.911 31.8112 166.985 31.1608 165.262 31.1608C164.74 31.1608 164.329 31.2285 164.029 31.364C163.729 31.4995 163.579 31.7434 163.579 32.0957C163.579 32.4751 163.86 32.78 164.421 33.0103C164.982 33.2406 165.863 33.5049 167.063 33.803C168.759 34.2365 170.169 34.6769 171.291 35.124C172.413 35.5712 173.398 36.2554 174.247 37.1768C175.095 38.0982 175.519 39.3041 175.519 40.7945C175.519 41.3365 175.467 41.8378 175.362 42.2985C175.023 44.1142 173.986 45.5843 172.25 46.7089C170.515 47.8335 168.159 48.3958 165.184 48.3958C162.078 48.3958 159.573 47.6845 157.668 46.2618C155.763 44.8391 154.719 42.8134 154.536 40.1848H163.031C162.979 40.9165 163.227 41.4314 163.775 41.7294C164.323 42.0275 165.027 42.1766 165.889 42.1766C166.88 42.1766 167.442 41.8785 167.572 41.2823C167.65 40.8487 167.422 40.51 166.887 40.2661C166.352 40.0222 165.432 39.7512 164.127 39.4531C162.483 39.0737 161.106 38.6672 159.997 38.2337C158.888 37.8001 157.916 37.1294 157.081 36.2216C156.246 35.3137 155.828 34.1146 155.828 32.6241C155.828 32.2989 155.88 31.7841 155.985 31.0795C156.272 29.2909 157.276 27.814 158.999 26.6488C160.721 25.4835 163.057 24.9009 166.006 24.9009ZM196.384 25.0228C198.498 25.0228 200.129 25.6597 201.278 26.9333C202.426 28.207 203 29.9684 203 32.2177C203 33.0035 202.922 33.8707 202.765 34.8192L200.534 48.1113H191.882L193.918 35.9573C193.97 35.5237 193.996 35.2257 193.996 35.0631C193.996 34.223 193.774 33.5726 193.331 33.1119C192.887 32.6512 192.261 32.4209 191.452 32.4209C190.564 32.4209 189.801 32.6919 189.162 33.2339C188.522 33.7759 188.072 34.5346 187.811 35.5102L185.697 48.1113H177.006L182.096 18.0312H190.786L188.985 28.6406C189.873 27.5566 190.943 26.6827 192.195 26.0187C193.448 25.3548 194.844 25.0228 196.384 25.0228Z" fill="#EAEAEA"/>
</g>
<defs>
<clipPath id="clip0_79_386">
<rect width="58.4502" height="58.9042" fill="white" transform="translate(0.275391 0.5)"/>
</clipPath>
<clipPath id="clip1_79_386">
<rect width="134" height="30.3646" fill="white" transform="translate(69 18.0312)"/>
</clipPath>
</defs>
</svg>
