<svg width="34" height="28" viewBox="0 0 34 28" fill="none" xmlns="http://www.w3.org/2000/svg">
<path d="M3.8 2H30.2C31.19 2 32 2.81 32 3.8V22.4C32 24.38 30.38 26 28.4 26H5.6C3.62 26 2 24.38 2 22.4V3.8C2 2.81 2.81 2 3.8 2Z" fill="black" fill-opacity="0.16"/>
<path d="M3.8 2H30.2C31.19 2 32 2.81 32 3.8V22.4C32 24.38 30.38 26 28.4 26H5.6C3.62 26 2 24.38 2 22.4V3.8C2 2.81 2.81 2 3.8 2Z" stroke="#160040" stroke-width="2.5" stroke-miterlimit="10"/>
<path d="M3.8 2H30.2C31.19 2 32 2.81 32 3.8V22.4C32 24.38 30.38 26 28.4 26H5.6C3.62 26 2 24.38 2 22.4V3.8C2 2.81 2.81 2 3.8 2Z" stroke="#EAEAEA" stroke-width="2.5" stroke-miterlimit="10"/>
<path d="M6.49805 6.58984L16.803 15.4248C16.908 15.5148 17.088 15.5148 17.193 15.4248L27.498 6.58984" fill="black" fill-opacity="0.16"/>
<path d="M6.49805 6.58984L16.803 15.4248C16.908 15.5148 17.088 15.5148 17.193 15.4248L27.498 6.58984" stroke="#160040" stroke-width="2.5" stroke-linecap="round" stroke-linejoin="round"/>
<path d="M6.49805 6.58984L16.803 15.4248C16.908 15.5148 17.088 15.5148 17.193 15.4248L27.498 6.58984" stroke="#EAEAEA" stroke-width="2.5" stroke-linecap="round" stroke-linejoin="round"/>
</svg>
